<svg width="75" height="75" viewBox="0 0 75 75" fill="none" xmlns="http://www.w3.org/2000/svg">
<path d="M44.2388 24.1872H49.6367V16.001H43.2913V16.0305C35.6027 16.3101 34.0269 20.7471 33.888 25.4073H33.8722V29.495H28.6367V37.5118H33.8722V59.001H41.7624V37.5118H48.2257L49.4743 29.495H41.765V27.0253C41.765 25.4504 42.7858 24.1872 44.2388 24.1872Z" fill="white"/>
<path d="M74.6367 37.998C74.6367 58.4326 58.0713 74.998 37.6367 74.998C17.2022 74.998 0.636719 58.4326 0.636719 37.998C0.636719 17.5635 17.2022 0.998047 37.6367 0.998047C58.0713 0.998047 74.6367 17.5635 74.6367 37.998ZM6.21642 37.998C6.21642 55.351 20.2838 69.4184 37.6367 69.4184C54.9897 69.4184 69.057 55.351 69.057 37.998C69.057 20.6451 54.9897 6.57775 37.6367 6.57775C20.2838 6.57775 6.21642 20.6451 6.21642 37.998Z" fill="white"/>
</svg>
