<svg width="64" height="65" viewBox="0 0 64 65" fill="none" xmlns="http://www.w3.org/2000/svg">
<path d="M15.1396 0.309036C14.4213 0.373886 13.1941 0.583397 12.4459 0.777939C6.61455 2.27942 2.0253 6.86868 0.523816 12.7C0.324283 13.4832 0.119763 14.6804 0.0499261 15.4935C0.0199962 15.8826 4.28987e-05 21.7588 4.28987e-05 32.1844C4.28987e-05 49.6834 -0.00993374 48.9551 0.2744 50.5164C1.05757 54.7815 3.49685 58.5826 7.04853 61.0817C9.53272 62.8276 12.3262 63.8203 15.4139 64.0547C16.4814 64.1345 48.4965 64.0996 49.0851 64.0148C51.9584 63.6058 54.1183 62.8276 56.2882 61.4259C57.251 60.8024 57.8994 60.2786 58.8273 59.3657C60.4235 57.8094 61.5609 56.1882 62.4288 54.2128C63.0973 52.7063 63.4814 51.2846 63.7607 49.3392C63.8455 48.7506 63.8804 16.7356 63.8006 15.6681C63.5761 12.7499 62.6782 10.0911 61.1019 7.7117C58.5928 3.92058 54.7069 1.34661 50.2623 0.528522C48.701 0.24419 49.4492 0.254166 31.8305 0.259155C22.9263 0.264145 15.4139 0.289085 15.1396 0.309036ZM48.5863 5.7912C53.2104 6.35987 56.9566 9.65714 58.089 14.1466C58.4332 15.5134 58.4132 14.2913 58.4132 32.2043C58.4132 46.451 58.4033 48.4563 58.3384 48.9751C58.089 50.8656 57.3707 52.6564 56.2284 54.1978C55.7495 54.8463 54.5922 56.0036 53.9437 56.4825C52.4023 57.6248 50.6115 58.3431 48.7209 58.5925C48.2021 58.6574 46.1968 58.6674 31.9502 58.6674C14.0372 58.6674 15.2593 58.6873 13.8925 58.3431C9.38805 57.2058 6.05586 53.4047 5.53707 48.7955C5.49717 48.4563 5.48719 43.4829 5.49717 31.905L5.51213 15.4935L5.65181 14.8051C6.45991 10.7596 9.26335 7.55706 13.1044 6.29003C13.7628 6.07553 14.8253 5.83609 15.4139 5.77623C15.8679 5.72635 48.1922 5.7463 48.5863 5.7912Z" fill="white"/>
<path d="M48.81 10.9547C47.4233 11.2789 46.3608 12.3115 46.0216 13.6833C45.9068 14.1472 45.9168 14.9553 46.0415 15.4442C46.5902 17.5991 48.9497 18.7664 51.0049 17.9034C51.5586 17.6739 52.267 17.1053 52.5812 16.6414C53.4542 15.3544 53.4442 13.6584 52.5513 12.4063C52.1073 11.7827 51.4987 11.3338 50.7455 11.0694C50.3714 10.9397 50.2167 10.9198 49.7079 10.9048C49.3189 10.8898 49.0046 10.9098 48.81 10.9547Z" fill="white"/>
<path d="M30.9026 16.3436C26.9818 16.6528 23.45 18.2591 20.7314 20.9827C18.2173 23.4918 16.6759 26.6444 16.1771 30.2809C16.0573 31.1638 16.0573 33.2539 16.1821 34.1469C16.5362 36.7458 17.3344 38.8857 18.7311 40.9808C20.906 44.2482 24.1534 46.5827 27.8946 47.5654C30.2391 48.179 32.7931 48.2488 35.1626 47.76C38.2154 47.1314 40.949 45.6549 43.1738 43.4251C45.7029 40.896 47.2393 37.7734 47.7232 34.1718C47.8329 33.3387 47.8479 31.2287 47.7481 30.4306C47.2792 26.7193 45.7328 23.5317 43.1489 20.9528C40.6547 18.4636 37.4672 16.9072 33.8956 16.4383C33.3269 16.3585 31.4313 16.3037 30.9026 16.3436ZM32.8979 21.2072C35.0329 21.3867 37.1529 22.2397 38.8589 23.5966C39.4226 24.0505 40.3504 25.0083 40.7844 25.5919C41.9018 27.0884 42.5852 28.7246 42.8845 30.6052C43.0042 31.3734 43.0042 33.0345 42.8845 33.8176C42.1263 38.6613 38.41 42.3776 33.5663 43.1358C32.8031 43.2555 31.0772 43.2555 30.3389 43.1358C26.6874 42.5472 23.6496 40.3174 22.0483 37.05C20.3922 33.678 20.5618 29.7172 22.5023 26.5048C23.3852 25.0482 24.7969 23.6365 26.2535 22.7535C28.2438 21.5514 30.5883 21.0076 32.8979 21.2072Z" fill="white"/>
</svg>
